<?xml version="1.0" encoding="UTF-8" standalone="no"?>
<svg
   xmlns:dc="http://purl.org/dc/elements/1.1/"
   xmlns:cc="http://creativecommons.org/ns#"
   xmlns:rdf="http://www.w3.org/1999/02/22-rdf-syntax-ns#"
   xmlns:svg="http://www.w3.org/2000/svg"
   xmlns="http://www.w3.org/2000/svg"
   viewBox="200 200 393.70135 393.70135"
   height="793.70135"
   width="793.70135"
   xml:space="preserve"
   id="svg2"
   version="1.1"><metadata
     id="metadata8"><rdf:RDF><cc:Work
         rdf:about=""><dc:format>image/svg+xml</dc:format><dc:type
           rdf:resource="http://purl.org/dc/dcmitype/StillImage" /></cc:Work></rdf:RDF></metadata><defs
     id="defs6"><clipPath
       id="clipPath18"
       clipPathUnits="userSpaceOnUse"><path
         id="path16"
         d="M 0,595.276 H 595.276 V 0 H 0 Z" /></clipPath></defs><g
     transform="matrix(1.3333333,0,0,-1.3333333,0,793.70133)"
     id="g10"><g
       id="g12"><g
         clip-path="url(#clipPath18)"
         id="g14"><g
           transform="translate(371.9633,243.4779)"
           id="g20"><path
             id="path22"
             style="fill:#de183d;fill-opacity:1;fill-rule:nonzero;stroke:none"
             d="m 0,0 c 0.34,1.04 0.5,2.13 0.5,3.3 0,1.45 -0.23,2.72 -0.7,3.82 -0.471,1.1 -1.13,2.02 -2,2.75 -0.78,0.66 -1.67,1.19 -2.651,1.56 -0.99,0.39 -2.16,0.65 -3.54,0.81 l -9.58,1.11 V -13.2 l 6.26,-0.23 v 8.53 l 3.19,-0.201 c 0.861,-0.059 1.621,-0.029 2.31,0.08 0.681,0.101 1.311,0.271 1.891,0.491 0.57,0.23 1.09,0.509 1.57,0.85 0.47,0.35 0.899,0.73 1.289,1.14 C -0.82,-1.88 -0.33,-1.03 0,0 M 11,18.95 V -23.22 H -30.881 V 25.3 Z" /></g><g
           transform="translate(374.5824,277.7679)"
           id="g24"><path
             id="path26"
             style="fill:#de183d;fill-opacity:1;fill-rule:nonzero;stroke:none"
             d="m 0,0 -7.43,14.52 7.191,10.459 -6.37,1.721 -4.37,-6.61 -4.371,8.96 -7.32,1.96 7.83,-15.06 L -23,4.359 -15.979,3.03 -11.21,10.359 -6.659,1.26 Z M 8.381,31.05 V -11.04 L -33.5,-4.69 v 48.43 z" /></g><g
           transform="translate(372.4633,325.5375)"
           id="g28"><path
             id="path30"
             style="fill:#de183d;fill-opacity:1;fill-rule:nonzero;stroke:none"
             d="m 0,0 v 4.79 l -12.24,4.33 v 5.931 L -0.761,10.78 v 4.8 L -12.24,20.021 V 25.24 L 0,20.311 v 4.779 l -18.471,7.721 V 6.261 Z M 10.5,29.62 V -12.279 L -31.381,0.41 v 48.24 z" /></g><g
           transform="translate(367.1527,292.2875)"
           id="g32"><path
             id="path34"
             style="fill:#ffffff;fill-opacity:1;fill-rule:nonzero;stroke:none"
             d="m 0,0 7.43,-14.52 -6.659,1.26 -4.551,9.1 -4.77,-7.329 -7.02,1.329 8.16,11.591 -7.83,15.059 7.32,-1.96 4.37,-8.96 4.37,6.611 6.37,-1.721 z" /></g><g
           transform="translate(372.4633,330.3275)"
           id="g36"><path
             id="path38"
             style="fill:#ffffff;fill-opacity:1;fill-rule:nonzero;stroke:none"
             d="m 0,0 v -4.79 l -18.471,6.261 v 26.55 L 0,20.3 V 15.521 L -12.24,20.45 V 15.23 L -0.761,10.79 V 5.99 L -12.24,10.261 V 4.33 Z" /></g><g
           transform="translate(366.2924,245.3275)"
           id="g40"><path
             id="path42"
             style="fill:#ffffff;fill-opacity:1;fill-rule:nonzero;stroke:none"
             d="m 0,0 c 0.141,0.45 0.221,1.061 0.221,1.83 0,0.72 -0.17,1.36 -0.481,1.91 -0.319,0.55 -0.7,0.95 -1.149,1.191 C -1.97,5.25 -2.52,5.46 -3.04,5.55 -3.56,5.641 -4.27,5.74 -5.17,5.83 l -0.87,0.08 v -7.8 l 0.431,-0.04 c 0.58,-0.04 1.12,-0.07 1.63,-0.099 0.509,-0.031 0.95,-0.031 1.32,0.019 0.319,0.031 0.659,0.12 1.019,0.25 0.361,0.151 0.63,0.31 0.821,0.5 C -0.409,-0.87 -0.14,-0.45 0,0 m 6.171,1.45 c 0,-1.17 -0.16,-2.26 -0.5,-3.3 C 5.341,-2.88 4.851,-3.729 4.21,-4.39 3.82,-4.8 3.391,-5.18 2.921,-5.529 2.44,-5.87 1.921,-6.149 1.351,-6.38 0.771,-6.6 0.141,-6.77 -0.54,-6.87 -1.229,-6.979 -1.989,-7.01 -2.85,-6.95 l -3.19,0.2 v -8.529 l -6.26,0.229 V 11.5 l 9.58,-1.109 C -1.34,10.23 -0.17,9.971 0.82,9.58 1.801,9.21 2.69,8.681 3.471,8.021 4.341,7.29 5,6.37 5.471,5.271 5.94,4.17 6.171,2.9 6.171,1.45" /></g><g
           transform="translate(366.5131,247.1576)"
           id="g44"><path
             id="path46"
             style="fill:#ed127b;fill-opacity:1;fill-rule:nonzero;stroke:none"
             d="M 0,0 C 0,-0.77 -0.08,-1.38 -0.221,-1.83 -0.36,-2.28 -0.63,-2.7 -1.04,-3.09 -1.23,-3.28 -1.5,-3.439 -1.86,-3.59 -2.221,-3.72 -2.561,-3.81 -2.88,-3.84 -3.25,-3.89 -3.69,-3.89 -4.2,-3.859 -4.71,-3.83 -5.25,-3.8 -5.83,-3.76 l -0.431,0.04 v 7.8 L -5.391,4 C -4.49,3.91 -3.78,3.811 -3.261,3.72 -2.74,3.63 -2.19,3.42 -1.63,3.101 -1.181,2.86 -0.8,2.46 -0.48,1.91 -0.17,1.36 0,0.72 0,0" /></g><g
           transform="translate(336.8324,269.0179)"
           id="g48"><path
             id="path50"
             style="fill:#de183d;fill-opacity:1;fill-rule:nonzero;stroke:none"
             d="M 0,0 V -48.76 H -42.989 V -2.34 Z" /></g><g
           transform="translate(336.8324,322.0179)"
           id="g52"><path
             id="path54"
             style="fill:#de183d;fill-opacity:1;fill-rule:nonzero;stroke:none"
             d="m 0,0 v -48.75 l -42.989,-2.33 v 46.4 z" /></g><g
           transform="translate(247.2631,264.1381)"
           id="g56"><path
             id="path58"
             style="fill:#de183d;fill-opacity:1;fill-rule:nonzero;stroke:none"
             d="M 0,0 V -43.88 H -34.95 V -1.9 Z" /></g><g
           transform="translate(247.2631,312.2777)"
           id="g60"><path
             id="path62"
             style="fill:#de183d;fill-opacity:1;fill-rule:nonzero;stroke:none"
             d="m 0,0 v -43.88 l -34.95,-1.9 v 41.97 z" /></g><g
           transform="translate(336.8324,375.0179)"
           id="g64"><path
             id="path66"
             style="fill:#2b427a;fill-opacity:1;fill-rule:nonzero;stroke:none"
             d="m 0,0 -124.52,-20.32 v -41.951 l 38.901,4.231 v -96.72 H -46.93 V -53.833 L 0,-48.73 Z" /></g></g></g></g></svg>